<?xml version="1.0" encoding="UTF-8"?><svg id="_レイヤー_1" xmlns="http://www.w3.org/2000/svg" viewBox="0 0 480.01 452.21"><defs><style>.cls-1{fill:#040000;stroke-width:0px;}</style></defs><path class="cls-1" d="m269.81,415.04h-.28l-5.45,9.44c-.27.48-.27,1.06,0,1.54l2.69,4.66,12.63-10.35-9.59-5.29h0Z"/><polygon class="cls-1" points="278.28 450.6 282.74 447.54 273.62 442.54 278.28 450.6"/><polygon class="cls-1" points="303.24 433.49 280.32 420.84 267.26 431.53 272.7 440.94 283.63 446.93 303.24 433.49"/><path class="cls-1" d="m310.78,451.44l6.04-10.47-12.63-6.97-19.61,13.44,8.68,4.76h16.18c.55,0,1.06-.29,1.34-.77h-.01Z"/><path class="cls-1" d="m283.69,448.06l-4.93,3.38h0c.27.48.78.77,1.34.77h11.17l-7.57-4.15h0Z"/><polygon class="cls-1" points="290.52 412.49 281.19 420.12 304.3 432.76 316.26 424.57 290.52 412.49"/><polygon class="cls-1" points="305.25 433.28 317.41 439.93 324.15 428.26 317.27 425.04 305.25 433.28"/><polygon class="cls-1" points="289.55 412.03 275.46 405.42 275.09 405.41 270.1 414.06 280.28 419.63 289.55 412.03"/><path class="cls-1" d="m306.34,398.3h-26.25c-.55,0-1.06.29-1.34.77l-3.07,5.31,14.78,6.91,15.87-12.99h0Z"/><path class="cls-1" d="m324.44,427.15h.35l.65-1.14c.27-.48.27-1.06,0-1.54l-2.09-3.62-5.02,3.44,6.1,2.85h0Z"/><path class="cls-1" d="m317.33,423.83l5.55-3.8-12.1-20.97c-.27-.48-.78-.77-1.34-.77h-1.58l-16.42,13.44,25.89,12.09h0Z"/><polygon class="cls-1" points="283.63 446.93 282.74 447.54 283.69 448.06 284.57 447.45 283.63 446.93"/><polyline class="cls-1" points="305.25 433.28 304.3 432.76 303.24 433.49 304.19 434"/><polyline class="cls-1" points="318.34 424.31 317.33 423.83 316.26 424.57 317.27 425.04"/><polygon class="cls-1" points="291.44 411.73 290.47 411.29 289.55 412.03 290.52 412.49 291.44 411.73"/><polygon class="cls-1" points="281.19 420.12 280.28 419.63 279.41 420.34 280.32 420.84 281.19 420.12"/><path class="cls-1" d="m65.06,415.04h-.28l-5.45,9.44c-.27.48-.27,1.06,0,1.54l2.69,4.66,12.63-10.35-9.59-5.29h0Z"/><polygon class="cls-1" points="73.52 450.6 77.99 447.54 68.87 442.54 73.52 450.6"/><polygon class="cls-1" points="98.49 433.49 75.56 420.84 62.51 431.53 67.94 440.94 78.88 446.93 98.49 433.49"/><path class="cls-1" d="m106.02,451.44l6.04-10.47-12.63-6.97-19.61,13.44,8.68,4.76h16.18c.55,0,1.06-.29,1.34-.77h-.01Z"/><path class="cls-1" d="m78.93,448.06l-4.93,3.38h0c.27.48.78.77,1.34.77h11.17l-7.57-4.15h0Z"/><polygon class="cls-1" points="85.76 412.49 76.43 420.12 99.55 432.76 111.51 424.57 85.76 412.49"/><polygon class="cls-1" points="100.49 433.28 112.66 439.93 119.4 428.26 112.51 425.04 100.49 433.28"/><polygon class="cls-1" points="84.8 412.03 70.7 405.42 70.34 405.41 65.35 414.06 75.52 419.63 84.8 412.03"/><path class="cls-1" d="m101.59,398.3h-26.25c-.55,0-1.06.29-1.34.77l-3.07,5.31,14.78,6.91,15.87-12.99h0Z"/><path class="cls-1" d="m119.69,427.15h.35l.65-1.14c.27-.48.27-1.06,0-1.54l-2.09-3.62-5.02,3.44,6.1,2.85h0Z"/><path class="cls-1" d="m112.57,423.83l5.55-3.8-12.1-20.97c-.27-.48-.78-.77-1.34-.77h-1.58l-16.42,13.44,25.89,12.09h0Z"/><polygon class="cls-1" points="78.88 446.93 77.99 447.54 78.93 448.06 79.82 447.45 78.88 446.93"/><polyline class="cls-1" points="100.49 433.28 99.55 432.76 98.49 433.49 99.43 434"/><polyline class="cls-1" points="113.58 424.31 112.57 423.83 111.51 424.57 112.51 425.04"/><polygon class="cls-1" points="86.68 411.73 85.72 411.29 84.8 412.03 85.76 412.49 86.68 411.73"/><polygon class="cls-1" points="76.43 420.12 75.52 419.63 74.66 420.34 75.56 420.84 76.43 420.12"/><polygon class="cls-1" points="480.01 113.16 387.59 113.16 387.59 113.16 318.97 277.96 103.87 277.96 35.25 113.16 5.23 113.16 0 113.16 7.98 132.26 7.98 132.26 70.66 282.8 35.25 310.49 76.85 310.49 305.43 310.49 289.17 349.52 76.85 349.52 76.85 382.04 310.21 382.04 310.21 381.77 310.86 382.04 409.28 145.68 480.01 145.68 480.01 113.16"/><path class="cls-1" d="m274.75,275.08l45.35-19.42-36.38-33.33-1.73,10.17-.5,2.91-36.37-6.19-17.39-66.06s-.71-2.57-3.47-7.57c-1.13-2.05-3.42-4.54-5.73-6.78,37.85,4.18,72.44-19.64,78.45-54.94,6.25-36.74-20.81-71.98-60.43-78.73l-10.57-1.8-48.66-8.28-29.76-5.07-39.58,232.59,29.76,5.07,18.74-110.12,2.15-12.65,12.91-6.2,1.83-10.73,8.29-48.73,3.2-18.8,31.58,5.37,6.86,1.16c25.72,4.38,43.28,27.26,39.22,51.09-4.06,23.84-28.19,39.62-53.91,35.24l-6.86-1.16-8.86-1.51,2.32-13.64-38.74,20.54,29.76,32.2,1.73-10.17c.61.85,1.18,1.68,1.64,2.39,2.21,3.4,7.67,12.02,8.9,16.06l25.79,84.37.3.05,34.06,5.8,18.42,3.13v.07s-2.33,13.64-2.33,13.64v.02Z"/></svg>