<?xml version="1.0" encoding="UTF-8"?>
<svg id="_レイヤー_1" data-name="レイヤー 1" xmlns="http://www.w3.org/2000/svg" viewBox="0 0 950.16 873.22">
  <defs>
    <style>
      .cls-1 {
        fill: #0e55a1;
        stroke-width: 0px;
      }

      .cls-2 {
        fill: none;
        stroke: #0e55a1;
        stroke-miterlimit: 10;
        stroke-width: 29.89px;
      }
    </style>
  </defs>
  <g id="a">
    <g>
      <g>
        <path class="cls-1" d="m529.42,797.57h-.5l-11.02,19.04c-.5,1-.5,2,0,3.01l5.51,9.52,25.55-21.04-19.54-10.52h0Z"/>
        <polygon class="cls-1" points="546.45 869.71 555.47 863.7 536.93 853.18 546.45 869.71"/>
        <polygon class="cls-1" points="597.05 835.14 550.46 809.59 523.9 831.14 534.93 850.17 557.47 862.2 597.05 835.14"/>
        <path class="cls-1" d="m612.08,871.22l12.02-21.04-25.55-14.03-39.58,27.05,17.53,9.52h33.07c1,.5,2-.5,2.5-1.5h0Z"/>
        <path class="cls-1" d="m557.47,864.7l-10.02,7.01h0c.5,1,1.5,1.5,2.5,1.5h22.54l-15.03-8.52h0Z"/>
        <polygon class="cls-1" points="571.5 792.56 552.46 808.09 599.05 833.64 623.6 817.11 571.5 792.56"/>
        <polygon class="cls-1" points="601.06 834.64 626.11 848.17 639.63 824.62 625.6 818.11 601.06 834.64"/>
        <polygon class="cls-1" points="569.49 791.56 540.94 778.03 539.94 778.03 529.92 795.57 550.46 807.09 569.49 791.56"/>
        <path class="cls-1" d="m603.56,763.5h-53.1c-1,0-2,.5-2.5,1.5l-6.01,10.52,30.06,14.03,31.56-26.05h0Z"/>
        <path class="cls-1" d="m640.13,822.12h.5l1.5-2.5c.5-1,.5-2,0-3.01l-4.01-7.51-10.02,7.01,12.02,6.01h0Z"/>
        <path class="cls-1" d="m625.6,815.61l11.52-7.51-24.55-42.58c-.5-1-1.5-1.5-2.5-1.5h-3.51l-33.57,27.05,52.6,24.55h0Z"/>
        <polygon class="cls-1" points="557.47 862.2 555.47 863.7 557.47 864.7 558.97 863.2 557.47 862.2"/>
        <polyline class="cls-1" points="601.06 834.64 599.05 833.64 597.05 835.14 599.05 836.15"/>
        <polyline class="cls-1" points="627.61 816.61 625.6 815.11 623.6 817.11 625.6 817.61"/>
        <polygon class="cls-1" points="573 791.06 571 790.06 568.99 791.56 571 792.56 573 791.06"/>
        <polygon class="cls-1" points="552.46 808.09 550.46 806.59 548.45 808.09 550.46 809.59 552.46 808.09"/>
      </g>
      <g>
        <path class="cls-1" d="m139.65,797.57h-.5l-11.02,19.04c-.5,1-.5,2,0,3.01l5.51,9.52,25.55-21.04-19.54-10.52h0Z"/>
        <polygon class="cls-1" points="156.68 869.71 165.7 863.7 147.16 853.18 156.68 869.71"/>
        <polygon class="cls-1" points="207.28 835.14 161.19 809.59 134.64 831.14 145.66 850.17 167.7 862.2 207.28 835.14"/>
        <path class="cls-1" d="m222.81,871.22l12.02-21.04-25.55-14.03-39.58,27.05,17.53,9.52h33.07c1,.5,2-.5,2.5-1.5h0Z"/>
        <path class="cls-1" d="m167.7,864.7l-10.02,7.01h0c.5,1,1.5,1.5,2.5,1.5h22.54l-15.03-8.52h0Z"/>
        <polygon class="cls-1" points="181.73 792.56 162.69 808.09 209.79 833.64 233.83 817.11 181.73 792.56"/>
        <polygon class="cls-1" points="211.79 834.64 236.34 848.17 249.86 824.62 236.34 817.61 211.79 834.64"/>
        <polygon class="cls-1" points="179.73 791.56 151.17 778.03 150.67 778.03 140.15 795.57 161.19 806.59 179.73 791.56"/>
        <path class="cls-1" d="m213.79,763.5h-53.1c-1,0-2,.5-2.5,1.5l-6.01,10.52,30.06,14.03,31.56-26.05h0Z"/>
        <path class="cls-1" d="m250.37,822.12h.5l1.5-2.5c.5-1,.5-2,0-3.01l-4.01-7.51-10.02,7.01,12.02,6.01h0Z"/>
        <path class="cls-1" d="m236.34,815.11l11.52-7.51-24.55-42.58c-.5-1-1.5-1.5-2.5-1.5h-3.01l-33.57,27.05,52.1,24.55h0Z"/>
        <polygon class="cls-1" points="167.7 862.2 165.7 863.7 167.7 864.7 169.71 863.2 167.7 862.2"/>
        <polyline class="cls-1" points="211.79 834.64 209.79 833.64 207.28 835.14 209.28 836.15"/>
        <polyline class="cls-1" points="238.34 816.61 236.34 815.11 233.83 817.11 236.34 817.61"/>
        <polygon class="cls-1" points="183.73 791.06 181.73 790.06 179.73 791.56 181.73 792.56 183.73 791.06"/>
        <polygon class="cls-1" points="162.69 808.09 161.19 806.59 159.19 808.09 161.19 809.59 162.69 808.09"/>
      </g>
      <polygon class="cls-2" points="613.58 726.43 800.95 276.54 935.21 276.54 935.21 214.92 759.37 214.92 759.37 214.92 629.11 528.04 219.81 528.04 89.05 214.92 32.44 214.92 22.42 214.92 37.45 250.99 37.45 250.99 156.68 537.56 89.05 590.16 168.2 590.16 603.06 590.16 572.5 664.31 168.2 664.31 168.2 726.43 612.08 726.43 613.58 726.43"/>
      <g>
        <path class="cls-1" d="m348.56,206.41l3.51-20.54,16.03-92.68,6.01-35.57,60.12,10.02,13.03,2.5c49.1,8.52,82.16,52.1,74.65,97.19-3.51,19.04-13.53,35.57-28.06,47.59h80.66c6.01-11.52,10.52-23.55,12.52-36.57,12.02-69.64-39.58-136.77-114.73-149.79l-20.04-3.51-92.68-15.53L302.97,0l-36.57,214.92h64.63l17.53-8.52h0Z"/>
        <polygon class="cls-1" points="371.6 214.92 391.64 214.92 393.65 202.9 371.6 214.92"/>
        <path class="cls-1" d="m389.14,228.95l17.03,3.01,13.03,2.5c28.06,5.01,55.11-3.01,74.65-19.04h-102.2l-2.5,13.53h0Z"/>
        <polygon class="cls-1" points="331.02 214.92 324.01 217.93 320 241.98 371.6 214.92 331.02 214.92"/>
        <path class="cls-1" d="m574.5,214.92c-25.05,46.09-78.65,74.15-136.77,67.63,4.51,4.01,9.02,9.02,11.02,13.03,5.51,9.52,6.51,14.53,6.51,14.53l33.07,125.75,69.14,11.52,1-5.51,3.51-19.04,69.14,63.63-86.17,37.07,4.51-26.05h0l-35.07-6.01-64.63-11.02h-.5l-49.1-160.32c-2.5-7.51-12.52-24.05-17.03-30.56-1-1.5-2-3.01-3.01-4.51l-3.51,19.04-56.61-62.12-35.57,209.41-56.61-9.52,38.58-227.45H89.05l130.76,313.62h408.81l130.76-313.62-184.86.5h0Z"/>
      </g>
    </g>
  </g>
</svg>