<?xml version="1.0" encoding="UTF-8"?>
<svg id="_レイヤー_1" data-name="レイヤー 1" xmlns="http://www.w3.org/2000/svg" viewBox="0 0 425.21 375.38">
  <defs>
    <style>
      .cls-1 {
        fill: #231815;
      }

      .cls-1, .cls-2 {
        stroke-width: 0px;
      }

      .cls-3 {
        fill: none;
        stroke: #040000;
        stroke-miterlimit: 10;
        stroke-width: 5px;
      }
    </style>
  </defs>
  <polygon class="cls-3" points="2.5 2.5 2.5 286.14 2.5 370.18 55.03 328.16 107.55 286.14 422.71 286.14 422.71 2.5 2.5 2.5"/>
  <g>
    <g>
      <path class="cls-2" d="m155.06,187.68c-2.77,1.39-9.01,3.58-17.1,3.58-18.03,0-29.93-12.82-29.93-32.12s12.82-33.62,32.24-33.62c7.05,0,12.71,2.08,15.14,3.35l-2.43,7.74c-2.66-1.5-6.82-3.23-12.94-3.23-14.56,0-22.18,11.67-22.18,25.19,0,15.25,9.13,24.84,21.84,24.84,6.24,0,10.51-1.73,13.63-3.12l1.73,7.39Z"/>
      <path class="cls-2" d="m218.85,189.99h-9.59v-37.21c0-10.28-3.7-19.18-14.56-19.18-7.39,0-16.64,6.12-16.64,17.68v38.71h-9.59v-92.43h9.59v39.17h.23c4.16-6.93,11.79-11.21,19.53-11.21s21.03,4.74,21.03,26.11v38.36Z"/>
      <path class="cls-2" d="m278.7,174.96c0,5.2.11,10.63.93,15.02h-8.78l-.93-8.09h-.34c-3.24,4.97-9.71,9.48-18.6,9.48-12.02,0-18.37-8.78-18.37-17.91,0-15.14,13.17-23.34,36.51-23.22,0-5.31,0-17.33-14.33-17.33-5.43,0-11.09,1.5-15.37,4.51l-2.31-6.59c5.08-3.35,12.13-5.32,19.18-5.32,17.79,0,22.41,12.59,22.41,25.07v24.38Zm-9.47-17.68c-11.9,0-26.81,1.73-26.81,15.02,0,8.09,5.08,11.67,10.86,11.67,9.36,0,15.95-7.16,15.95-14.79v-11.9Z"/>
      <path class="cls-2" d="m299.74,115.58l9.48-3.24v14.67h16.29v7.51h-16.29v36.39c0,7.97,2.43,12.36,8.55,12.36,2.89,0,4.85-.35,6.47-.93l.58,7.39c-2.08.93-5.31,1.5-9.36,1.5-15.25,0-15.71-13.86-15.71-20.57v-36.16h-9.7v-7.51h9.7v-11.44Z"/>
    </g>
    <g>
      <path class="cls-1" d="m155.06,187.68c-2.77,1.39-9.01,3.58-17.1,3.58-18.03,0-29.93-12.82-29.93-32.12s12.82-33.62,32.24-33.62c7.05,0,12.71,2.08,15.14,3.35l-2.43,7.74c-2.66-1.5-6.82-3.23-12.94-3.23-14.56,0-22.18,11.67-22.18,25.19,0,15.25,9.13,24.84,21.84,24.84,6.24,0,10.51-1.73,13.63-3.12l1.73,7.39Z"/>
      <path class="cls-1" d="m218.85,189.99h-9.59v-37.21c0-10.28-3.7-19.18-14.56-19.18-7.39,0-16.64,6.12-16.64,17.68v38.71h-9.59v-92.43h9.59v39.17h.23c4.16-6.93,11.79-11.21,19.53-11.21s21.03,4.74,21.03,26.11v38.36Z"/>
      <path class="cls-1" d="m278.7,174.96c0,5.2.11,10.63.93,15.02h-8.78l-.93-8.09h-.34c-3.24,4.97-9.71,9.48-18.6,9.48-12.02,0-18.37-8.78-18.37-17.91,0-15.14,13.17-23.34,36.51-23.22,0-5.31,0-17.33-14.33-17.33-5.43,0-11.09,1.5-15.37,4.51l-2.31-6.59c5.08-3.35,12.13-5.32,19.18-5.32,17.79,0,22.41,12.59,22.41,25.07v24.38Zm-9.47-17.68c-11.9,0-26.81,1.73-26.81,15.02,0,8.09,5.08,11.67,10.86,11.67,9.36,0,15.95-7.16,15.95-14.79v-11.9Z"/>
      <path class="cls-1" d="m299.74,115.58l9.48-3.24v14.67h16.29v7.51h-16.29v36.39c0,7.97,2.43,12.36,8.55,12.36,2.89,0,4.85-.35,6.47-.93l.58,7.39c-2.08.93-5.31,1.5-9.36,1.5-15.25,0-15.71-13.86-15.71-20.57v-36.16h-9.7v-7.51h9.7v-11.44Z"/>
    </g>
  </g>
</svg>