<?xml version="1.0" encoding="UTF-8"?>
<svg id="_レイヤー_1" data-name=" レイヤー 1" xmlns="http://www.w3.org/2000/svg" viewBox="0 0 353 352.99">
  <defs>
    <style>
      .cls-1 {
        fill: #404d51;
        stroke-width: 0px;
      }
    </style>
  </defs>
  <path class="cls-1" d="m353,198.32v-43.64h-59.83c-3.08-16.54-9.57-31.89-18.74-45.25l42.31-42.31-30.86-30.86-42.31,42.31c-13.37-9.17-28.71-15.66-45.25-18.74V0h-43.64v59.83c-16.54,3.08-31.89,9.57-45.25,18.74l-42.31-42.31-30.86,30.86,42.31,42.31c-9.17,13.37-15.66,28.71-18.74,45.25H0v43.64h59.83c3.08,16.54,9.57,31.89,18.74,45.25l-42.31,42.31,30.86,30.86,42.31-42.31c13.37,9.17,28.71,15.66,45.25,18.74v59.83h43.64v-59.83c16.54-3.08,31.89-9.57,45.25-18.74l42.31,42.31,30.86-30.86-42.31-42.31c9.17-13.37,15.66-28.71,18.74-45.25h59.84Zm-176.5,48c-38.56,0-69.83-31.26-69.83-69.83s31.26-69.83,69.83-69.83,69.83,31.26,69.83,69.83-31.26,69.83-69.83,69.83h0Z"/>
</svg>