<?xml version="1.0" encoding="UTF-8"?>
<svg id="_レイヤー_1" data-name="レイヤー 1" xmlns="http://www.w3.org/2000/svg" viewBox="0 0 380.72 380.72">
  <defs>
    <style>
      .cls-1 {
        fill: #040000;
        stroke-width: 0px;
      }
    </style>
  </defs>
  <path class="cls-1" d="m380.72,213.89v-47.07h-64.53c-3.32-17.84-10.32-34.39-20.21-48.8l45.63-45.63-33.28-33.28-45.63,45.63c-14.42-9.89-30.96-16.89-48.8-20.21V0h-47.07v64.53c-17.84,3.32-34.39,10.32-48.8,20.21l-45.63-45.63-33.28,33.28,45.63,45.63c-9.89,14.42-16.89,30.96-20.21,48.8H0v47.07h64.53c3.32,17.84,10.32,34.39,20.21,48.8l-45.63,45.63,33.28,33.28,45.63-45.63c14.42,9.89,30.96,16.89,48.8,20.21v64.53h47.07v-64.53c17.84-3.32,34.39-10.32,48.8-20.21l45.63,45.63,33.28-33.28-45.63-45.63c9.89-14.42,16.89-30.96,20.21-48.8h64.53Zm-190.36,51.77c-41.59,0-75.31-33.72-75.31-75.31s33.72-75.31,75.31-75.31,75.31,33.72,75.31,75.31-33.72,75.31-75.31,75.31Z"/>
</svg>