<?xml version="1.0" encoding="UTF-8"?>
<svg id="_レイヤー_1" data-name="レイヤー 1" xmlns="http://www.w3.org/2000/svg" viewBox="0 0 483.89 447.89">
  <defs>
    <style>
      .cls-1 {
        stroke-width: 0px;
      }

      .cls-2 {
        fill: none;
        stroke: #000;
        stroke-miterlimit: 10;
        stroke-width: 12.48px;
      }
    </style>
  </defs>
  <g id="a">
    <g>
      <g>
        <path class="cls-1" d="m269.36,409.15h-.27l-5.66,9.82c-.27.48-.27,1.09,0,1.57l2.8,4.84,13.16-10.78-10.03-5.46h0Z"/>
        <polygon class="cls-1" points="278.16 446.18 282.79 442.98 273.31 437.79 278.16 446.18"/>
        <polygon class="cls-1" points="304.14 428.38 280.27 415.22 266.7 426.34 272.36 436.16 283.75 442.36 304.14 428.38"/>
        <path class="cls-1" d="m311.98,447.07l6.27-10.91-13.16-7.23-20.39,13.98,9.07,4.98h16.85c.55,0,1.09-.34,1.36-.82h0Z"/>
        <path class="cls-1" d="m283.82,443.52l-5.12,3.55h0c.27.48.82.82,1.36.82h11.59l-7.84-4.36h0Z"/>
        <polygon class="cls-1" points="290.91 406.49 281.22 414.47 305.23 427.63 317.71 419.11 290.91 406.49"/>
        <polygon class="cls-1" points="306.25 428.18 318.94 435.07 325.9 422.93 318.74 419.58 306.25 428.18"/>
        <polygon class="cls-1" points="289.89 406.01 275.22 399.12 274.88 399.12 269.63 408.13 280.27 413.92 289.89 406.01"/>
        <path class="cls-1" d="m307.41,391.76h-27.35c-.55,0-1.09.27-1.36.82l-3.21,5.52,15.41,7.16,16.51-13.5h0Z"/>
        <path class="cls-1" d="m326.24,421.77h.34l.68-1.16c.27-.48.27-1.09,0-1.57l-2.18-3.75-5.25,3.61,6.41,2.86h0Z"/>
        <path class="cls-1" d="m318.8,418.29l5.8-3.96-12.62-21.82c-.27-.48-.82-.82-1.36-.82h-1.64l-17.12,13.98,26.94,12.62h0Z"/>
        <polygon class="cls-1" points="283.75 442.36 282.79 442.98 283.82 443.52 284.7 442.91 283.75 442.36"/>
        <polyline class="cls-1" points="306.25 428.18 305.23 427.63 304.14 428.38 305.16 428.93"/>
        <polyline class="cls-1" points="319.9 418.83 318.8 418.29 317.71 419.11 318.74 419.58"/>
        <polygon class="cls-1" points="291.86 405.74 290.84 405.26 289.89 406.01 290.91 406.49 291.86 405.74"/>
        <polygon class="cls-1" points="281.22 414.47 280.27 413.92 279.31 414.67 280.27 415.22 281.22 414.47"/>
      </g>
      <g>
        <path class="cls-1" d="m69.59,409.15h-.27l-5.66,9.82c-.27.48-.27,1.09,0,1.57l2.8,4.84,13.16-10.78-10.03-5.46Z"/>
        <polygon class="cls-1" points="78.39 446.18 83.03 442.98 73.55 437.79 78.39 446.18"/>
        <polygon class="cls-1" points="104.37 428.38 80.5 415.22 66.93 426.34 72.59 436.16 83.98 442.36 104.37 428.38"/>
        <path class="cls-1" d="m112.22,447.07l6.27-10.91-13.16-7.23-20.39,13.98,9.07,4.98h16.85c.55,0,1.09-.34,1.36-.82h0Z"/>
        <path class="cls-1" d="m84.05,443.52l-5.12,3.55h0c.27.48.82.82,1.36.82h11.59l-7.84-4.36h0Z"/>
        <polygon class="cls-1" points="91.14 406.49 81.46 414.47 105.53 427.63 117.95 419.11 91.14 406.49"/>
        <polygon class="cls-1" points="106.49 428.18 119.17 435.07 126.2 422.93 119.04 419.58 106.49 428.18"/>
        <polygon class="cls-1" points="90.12 406.01 75.46 399.12 75.12 399.12 69.86 408.13 80.5 413.92 90.12 406.01"/>
        <path class="cls-1" d="m107.65,391.76h-27.35c-.55,0-1.09.27-1.36.82l-3.21,5.52,15.41,7.16,16.51-13.5h0Z"/>
        <path class="cls-1" d="m126.47,421.77h.34l.68-1.16c.27-.48.27-1.09,0-1.57l-2.18-3.75-5.25,3.61,6.41,2.86h0Z"/>
        <path class="cls-1" d="m119.04,418.29l5.8-3.96-12.62-21.82c-.27-.48-.82-.82-1.36-.82h-1.64l-17.12,13.98,26.94,12.62h0Z"/>
        <polygon class="cls-1" points="83.98 442.36 83.03 442.98 84.05 443.52 84.94 442.91 83.98 442.36"/>
        <polyline class="cls-1" points="106.49 428.18 105.53 427.63 104.37 428.38 105.4 428.93"/>
        <polyline class="cls-1" points="120.13 418.83 119.04 418.29 117.95 419.11 119.04 419.58"/>
        <polygon class="cls-1" points="92.1 405.74 91.07 405.26 90.12 406.01 91.14 406.49 92.1 405.74"/>
        <polygon class="cls-1" points="81.46 414.47 80.5 413.92 79.62 414.67 80.5 415.22 81.46 414.47"/>
      </g>
      <polygon class="cls-2" points="312.6 372.59 408.63 142 477.65 142 477.65 110.28 387.48 110.28 387.48 110.28 320.51 271.04 110.72 271.04 43.74 110.28 14.48 110.28 9.37 110.28 17.14 128.9 17.14 128.9 78.25 275.81 43.74 302.82 84.32 302.82 307.35 302.82 291.45 340.88 84.32 340.88 84.32 372.59 311.98 372.59 312.6 372.59"/>
      <g>
        <path class="cls-1" d="m176.74,105.92l1.77-10.44,8.12-47.54,3.14-18.35,30.83,5.25,6.68,1.16c25.1,4.3,42.22,26.6,38.26,49.86-1.71,9.89-6.89,18.35-14.32,24.48h41.4c3.07-5.8,5.32-12.07,6.48-18.82,6.07-35.81-20.32-70.25-58.93-76.8l-10.3-1.77-47.47-8.05-29.05-4.91-18.76,110.35h33.08l9.07-4.43h0Z"/>
        <polygon class="cls-1" points="188.47 110.28 198.77 110.28 199.79 104.28 188.47 110.28"/>
        <path class="cls-1" d="m197.54,117.58l8.66,1.5,6.68,1.16c14.46,2.46,28.3-1.57,38.33-9.89h-52.38l-1.3,7.23h0Z"/>
        <polygon class="cls-1" points="167.6 110.28 164.12 111.99 162.01 124.33 188.47 110.28 167.6 110.28"/>
        <path class="cls-1" d="m292.61,110.28c-12.75,23.67-40.38,38.06-70.04,34.78,2.25,2.18,4.5,4.64,5.59,6.62,2.73,4.91,3.41,7.37,3.41,7.37l16.98,64.45,35.47,6,.48-2.86,1.71-9.89,35.47,32.53-44.26,18.96,2.25-13.3v-.07l-17.94-3.07-33.21-5.66-.27-.07-25.17-82.32c-1.23-3.96-6.55-12.34-8.66-15.69-.48-.68-1.02-1.5-1.64-2.32l-1.71,9.89-29.05-31.44-18.28,107.42-29.05-4.91,19.85-116.49H43.74l66.98,160.82h209.72l67.04-160.75h-94.87Z"/>
      </g>
    </g>
  </g>
</svg>