<?xml version="1.0" encoding="UTF-8"?><svg id="a" xmlns="http://www.w3.org/2000/svg" viewBox="0 0 1203.7 1558.89"><g><path d="M678.61,1176.19h-.42l-8.19,14.19c-.41,.72-.41,1.6,0,2.32l4.05,7.01,19-15.56-14.43-7.96h0Z"/><polygon points="691.34 1229.67 698.06 1225.06 684.34 1217.54 691.34 1229.67"/><polygon points="728.89 1203.93 694.41 1184.9 674.77 1200.98 682.95 1215.13 699.39 1224.15 728.89 1203.93"/><path d="M740.22,1230.92l9.09-15.74-18.99-10.48-29.49,20.22,13.06,7.16h24.34c.83,0,1.59-.44,2.01-1.16h0Z"/><path d="M699.48,1225.84l-7.41,5.08h0c.41,.72,1.18,1.16,2.01,1.16h16.8l-11.39-6.24h0Z"/><polygon points="709.75 1172.35 695.72 1183.83 730.47 1202.84 748.47 1190.51 709.75 1172.35"/><polygon points="731.9 1203.61 750.2 1213.62 760.33 1196.07 749.98 1191.22 731.9 1203.61"/><polygon points="708.3 1171.66 687.1 1161.72 686.55 1161.7 679.04 1174.71 694.35 1183.08 708.3 1171.66"/><path d="M733.55,1151h-39.48c-.83,0-1.59,.44-2.01,1.16l-4.62,7.99,22.23,10.39,23.87-19.54Z"/><path d="M760.77,1194.4h.53l.98-1.71c.41-.72,.41-1.6,0-2.32l-3.14-5.44-7.55,5.18,9.18,4.29Z"/><path d="M750.07,1189.4l8.35-5.72-18.2-31.53c-.41-.72-1.18-1.16-2.01-1.16h-2.38l-24.7,20.22,38.94,18.19Z"/><polygon points="699.39 1224.15 698.06 1225.06 699.48 1225.84 700.81 1224.92 699.39 1224.15"/><polyline points="731.9 1203.61 730.47 1202.84 728.89 1203.93 730.31 1204.7"/><polyline points="751.59 1190.12 750.07 1189.4 748.47 1190.51 749.98 1191.22"/><polygon points="711.13 1171.21 709.68 1170.54 708.3 1171.66 709.75 1172.35 711.13 1171.21"/><polygon points="695.72 1183.83 694.35 1183.08 693.05 1184.15 694.41 1184.9 695.72 1183.83"/></g><g><path d="M370.68,1176.19h-.42l-8.19,14.19c-.41,.72-.41,1.6,0,2.32l4.05,7.01,19-15.56-14.43-7.96h0Z"/><polygon points="383.4 1229.67 390.12 1225.06 376.4 1217.54 383.4 1229.67"/><polygon points="420.95 1203.93 386.47 1184.9 366.84 1200.98 375.01 1215.13 391.46 1224.15 420.95 1203.93"/><path d="M432.28,1230.92l9.09-15.74-18.99-10.48-29.49,20.22,13.06,7.16h24.34c.83,0,1.59-.44,2.01-1.16h0Z"/><path d="M391.54,1225.84l-7.41,5.08h0c.41,.72,1.18,1.16,2.01,1.16h16.8l-11.39-6.24h0Z"/><polygon points="401.81 1172.35 387.78 1183.83 422.54 1202.84 440.53 1190.51 401.81 1172.35"/><polygon points="423.96 1203.61 442.26 1213.62 452.4 1196.07 442.04 1191.22 423.96 1203.61"/><polygon points="400.36 1171.66 379.16 1161.72 378.62 1161.7 371.11 1174.71 386.41 1183.08 400.36 1171.66"/><path d="M425.61,1151h-39.48c-.83,0-1.59,.44-2.01,1.16l-4.62,7.99,22.23,10.39,23.87-19.54Z"/><path d="M452.83,1194.4h.53l.98-1.71c.41-.72,.41-1.6,0-2.32l-3.14-5.44-7.55,5.18,9.18,4.29Z"/><path d="M442.13,1189.4l8.35-5.72-18.2-31.53c-.41-.72-1.18-1.16-2.01-1.16h-2.38l-24.7,20.22,38.94,18.19Z"/><polygon points="391.46 1224.15 390.12 1225.06 391.54 1225.84 392.87 1224.92 391.46 1224.15"/><polyline points="423.96 1203.61 422.54 1202.84 420.95 1203.93 422.37 1204.7"/><polyline points="443.65 1190.12 442.13 1189.4 440.53 1190.51 442.04 1191.22"/><polygon points="403.19 1171.21 401.74 1170.54 400.36 1171.66 401.81 1172.35 403.19 1171.21"/><polygon points="387.78 1183.83 386.41 1183.08 385.11 1184.15 386.47 1184.9 387.78 1183.83"/></g><polygon points="994.73 722.17 855.74 722.17 855.74 722.17 752.54 970.02 429.05 970.02 325.85 722.17 280.7 722.17 272.83 722.17 284.83 750.9 284.83 750.9 379.1 977.31 325.85 1018.94 388.41 1018.94 732.17 1018.94 707.73 1077.64 388.41 1077.64 388.41 1126.55 739.37 1126.55 739.37 1126.15 740.35 1126.55 888.36 771.09 994.73 771.09 994.73 722.17"/><path d="M686.03,965.69l68.21-29.2-54.71-50.12-2.6,15.29-.75,4.38-54.7-9.31-26.16-99.35s-1.07-3.87-5.22-11.39c-1.7-3.08-5.14-6.83-8.62-10.2,56.93,6.28,108.94-29.53,117.98-82.62,9.4-55.25-31.29-108.26-90.88-118.4l-15.89-2.7-73.18-12.46-44.75-7.62-59.53,349.8,44.75,7.62,28.19-165.62,3.24-19.02,19.42-9.32,2.75-16.14,12.47-73.29,4.81-28.28,47.5,8.08,10.31,1.75c38.68,6.58,65.09,40.99,58.98,76.84-6.1,35.86-42.4,59.59-81.08,53l-10.31-1.75-13.32-2.27,3.49-20.51-58.26,30.89,44.76,48.43,2.6-15.29c.91,1.28,1.77,2.52,2.47,3.59,3.32,5.11,11.53,18.08,13.39,24.15l38.78,126.89,.45,.08,51.23,8.72,27.7,4.71-.02,.1-3.49,20.51Z"/></svg>