<?xml version="1.0" encoding="utf-8"?>
<!-- Generator: Adobe Illustrator 27.9.0, SVG Export Plug-In . SVG Version: 6.00 Build 0)  -->
<svg version="1.1" id="a" xmlns="http://www.w3.org/2000/svg" xmlns:xlink="http://www.w3.org/1999/xlink" x="0px" y="0px"
	 viewBox="0 0 741.3 190.6" style="enable-background:new 0 0 741.3 190.6;" xml:space="preserve">
<style type="text/css">
	.st0{fill:#404D51;}
	.st1{font-family:'ArialMT';}
	.st2{font-size:113.39px;}
	.st3{letter-spacing:5.6;}
	.st4{fill:#005AAE;}
	.st5{fill:none;stroke:#005AAE;stroke-width:5.966;stroke-miterlimit:10;}
</style>
<text transform="matrix(0.9 0 0 1 248.6606 174.5823)" class="st0 st1 st2 st3">Re.ReaD.</text>
<g id="a_00000134950432641301655100000000690148621207137185_">
	<g>
		<g>
			<path class="st4" d="M127.6,167.4h-0.1l-2.2,3.8c-0.1,0.2-0.1,0.4,0,0.6l1.1,1.9l5.1-4.2L127.6,167.4L127.6,167.4L127.6,167.4z"
				/>
			<polygon class="st4" points="131,181.8 132.8,180.6 129.1,178.5 			"/>
			<polygon class="st4" points="141.1,174.9 131.8,169.8 126.5,174.1 128.7,177.9 133.2,180.3 			"/>
			<path class="st4" d="M144.1,182.1l2.4-4.2l-5.1-2.8l-7.9,5.4l3.5,1.9h6.6C143.8,182.5,144,182.3,144.1,182.1L144.1,182.1z"/>
			<path class="st4" d="M133.2,180.8l-2,1.4l0,0c0.1,0.2,0.3,0.3,0.5,0.3h4.5L133.2,180.8L133.2,180.8L133.2,180.8z"/>
			<polygon class="st4" points="136,166.4 132.2,169.5 141.5,174.6 146.4,171.3 			"/>
			<polygon class="st4" points="141.9,174.8 146.9,177.5 149.6,172.8 146.8,171.5 			"/>
			<polygon class="st4" points="135.6,166.2 129.9,163.5 129.7,163.5 127.7,167 131.8,169.3 			"/>
			<path class="st4" d="M142.4,160.6h-10.6c-0.2,0-0.4,0.1-0.5,0.3l-1.2,2.1l6,2.8L142.4,160.6L142.4,160.6L142.4,160.6z"/>
			<path class="st4" d="M149.7,172.3h0.1l0.3-0.5c0.1-0.2,0.1-0.4,0-0.6l-0.8-1.5l-2,1.4L149.7,172.3L149.7,172.3L149.7,172.3z"/>
			<path class="st4" d="M146.8,171l2.3-1.5l-4.9-8.5c-0.1-0.2-0.3-0.3-0.5-0.3H143l-6.7,5.4L146.8,171L146.8,171z"/>
			<polygon class="st4" points="133.2,180.3 132.8,180.6 133.2,180.8 133.5,180.5 			"/>
			<polyline class="st4" points="141.9,174.8 141.5,174.6 141.1,174.9 141.5,175.1 			"/>
			<polyline class="st4" points="147.2,171.2 146.8,170.9 146.4,171.3 146.8,171.4 			"/>
			<polygon class="st4" points="136.3,166.1 135.9,165.9 135.5,166.2 135.9,166.4 			"/>
			<polygon class="st4" points="132.2,169.5 131.8,169.2 131.4,169.5 131.8,169.8 			"/>
		</g>
		<g>
			<path class="st4" d="M49.8,167.4h-0.1l-2.2,3.8c-0.1,0.2-0.1,0.4,0,0.6l1.1,1.9l5.1-4.2L49.8,167.4L49.8,167.4z"/>
			<polygon class="st4" points="53.2,181.8 55,180.6 51.3,178.5 			"/>
			<polygon class="st4" points="63.3,174.9 54.1,169.8 48.8,174.1 51,177.9 55.4,180.3 			"/>
			<path class="st4" d="M66.4,182.1l2.4-4.2l-5.1-2.8l-7.9,5.4l3.5,1.9h6.6C66.1,182.5,66.3,182.3,66.4,182.1L66.4,182.1z"/>
			<path class="st4" d="M55.4,180.8l-2,1.4l0,0c0.1,0.2,0.3,0.3,0.5,0.3h4.5L55.4,180.8L55.4,180.8L55.4,180.8z"/>
			<polygon class="st4" points="58.2,166.4 54.4,169.5 63.8,174.6 68.6,171.3 			"/>
			<polygon class="st4" points="64.2,174.8 69.1,177.5 71.8,172.8 69.1,171.4 			"/>
			<polygon class="st4" points="57.8,166.2 52.1,163.5 52,163.5 49.9,167 54.1,169.2 			"/>
			<path class="st4" d="M64.6,160.6H54c-0.2,0-0.4,0.1-0.5,0.3l-1.2,2.1l6,2.8L64.6,160.6L64.6,160.6z"/>
			<path class="st4" d="M71.9,172.3h0.1l0.3-0.5c0.1-0.2,0.1-0.4,0-0.6l-0.8-1.5l-2,1.4L71.9,172.3L71.9,172.3L71.9,172.3z"/>
			<path class="st4" d="M69.1,170.9l2.3-1.5l-4.9-8.5c-0.1-0.2-0.3-0.3-0.5-0.3h-0.6l-6.7,5.4L69.1,170.9L69.1,170.9z"/>
			<polygon class="st4" points="55.4,180.3 55,180.6 55.4,180.8 55.8,180.5 			"/>
			<polyline class="st4" points="64.2,174.8 63.8,174.6 63.3,174.9 63.7,175.1 			"/>
			<polyline class="st4" points="69.5,171.2 69.1,170.9 68.6,171.3 69.1,171.4 			"/>
			<polygon class="st4" points="58.6,166.1 58.2,165.9 57.8,166.2 58.2,166.4 			"/>
			<polygon class="st4" points="54.4,169.5 54.1,169.2 53.7,169.5 54.1,169.8 			"/>
		</g>
		<polygon class="st5" points="144.4,153.2 181.8,63.4 208.6,63.4 208.6,51.1 173.5,51.1 173.5,51.1 147.5,113.6 65.8,113.6 
			39.7,51.1 28.4,51.1 26.4,51.1 29.4,58.3 29.4,58.3 53.2,115.5 39.7,126 55.5,126 142.3,126 136.2,140.8 55.5,140.8 55.5,153.2 
			144.1,153.2 		"/>
		<g>
			<path class="st4" d="M91.5,49.4l0.7-4.1l3.2-18.5l1.2-7.1l12,2l2.6,0.5c9.8,1.7,16.4,10.4,14.9,19.4c-0.7,3.8-2.7,7.1-5.6,9.5
				h16.1c1.2-2.3,2.1-4.7,2.5-7.3c2.4-13.9-7.9-27.3-22.9-29.9l-4-0.7l-18.5-3.1L82.4,8.2l-7.3,42.9H88L91.5,49.4L91.5,49.4
				L91.5,49.4z"/>
			<polygon class="st4" points="96.1,51.1 100.1,51.1 100.5,48.7 			"/>
			<path class="st4" d="M99.6,53.9l3.4,0.6l2.6,0.5c5.6,1,11-0.6,14.9-3.8h-20.4L99.6,53.9L99.6,53.9L99.6,53.9z"/>
			<polygon class="st4" points="88,51.1 86.6,51.7 85.8,56.5 96.1,51.1 			"/>
			<path class="st4" d="M136.6,51.1c-5,9.2-15.7,14.8-27.3,13.5c0.9,0.8,1.8,1.8,2.2,2.6c1.1,1.9,1.3,2.9,1.3,2.9l6.6,25.1l13.8,2.3
				l0.2-1.1l0.7-3.8l13.8,12.7l-17.2,7.4l0.9-5.2v0l-7-1.2l-12.9-2.2l-0.1,0l-9.8-32c-0.5-1.5-2.5-4.8-3.4-6.1
				c-0.2-0.3-0.4-0.6-0.6-0.9l-0.7,3.8L85.8,56.5l-7.1,41.8l-11.3-1.9L75.1,51H39.7l26.1,62.6h81.6l26.1-62.6L136.6,51.1L136.6,51.1
				z"/>
		</g>
	</g>
</g>
</svg>
