<?xml version="1.0" encoding="UTF-8"?>
<svg id="a" xmlns="http://www.w3.org/2000/svg" viewBox="0 0 715.65 203.25">
  <defs>
    <style>
      .cls-1, .cls-2 {
        isolation: isolate;
      }

      .cls-3 {
        fill: none;
        stroke: #005aae;
        stroke-miterlimit: 10;
        stroke-width: 5.97px;
      }

      .cls-4 {
        fill: #005aae;
        stroke-width: 0px;
      }

      .cls-2 {
        fill: #404d51;
        font-family: ArialMT, Arial;
        font-size: 113.39px;
        letter-spacing: .05em;
      }
    </style>
  </defs>
  <g class="cls-1">
    <text class="cls-2" transform="translate(226.77 166.43) scale(.9 1)"><tspan x="0" y="0">Re.ReaD.</tspan></text>
  </g>
  <g id="a-2" data-name="a">
    <g>
      <g>
        <path class="cls-4" d="m105.68,159.26h-.11l-2.2,3.82c-.11.19-.11.42,0,.61l1.09,1.88,5.12-4.2-3.9-2.12h0Z"/>
        <polygon class="cls-4" points="109.08 173.65 110.89 172.4 107.2 170.38 109.08 173.65"/>
        <polygon class="cls-4" points="119.22 166.74 109.93 161.62 104.64 165.95 106.85 169.77 111.28 172.18 119.22 166.74"/>
        <path class="cls-4" d="m122.25,173.99l2.44-4.25-5.12-2.81-7.94,5.44,3.53,1.94h6.56c.21,0,.42-.13.53-.32h0Z"/>
        <path class="cls-4" d="m111.29,172.61l-1.99,1.38h0c.11.19.32.32.53.32h4.51l-3.05-1.7h0Z"/>
        <polygon class="cls-4" points="114.07 158.22 110.3 161.33 119.64 166.45 124.5 163.13 114.07 158.22"/>
        <polygon class="cls-4" points="120.04 166.66 124.98 169.34 127.68 164.62 124.9 163.32 120.04 166.66"/>
        <polygon class="cls-4" points="113.67 158.03 107.96 155.35 107.83 155.35 105.78 158.86 109.93 161.11 113.67 158.03"/>
        <path class="cls-4" d="m120.49,152.49h-10.64c-.21,0-.42.11-.53.32l-1.25,2.15,6,2.79,6.43-5.25h0Z"/>
        <path class="cls-4" d="m127.8,164.15h.13l.26-.45c.11-.19.11-.42,0-.61l-.85-1.46-2.04,1.4,2.49,1.11h0Z"/>
        <path class="cls-4" d="m124.92,162.81l2.26-1.54-4.91-8.49c-.11-.19-.32-.32-.53-.32h-.64l-6.66,5.44,10.48,4.91h0Z"/>
        <polygon class="cls-4" points="111.26 172.16 110.89 172.4 111.29 172.61 111.63 172.38 111.26 172.16"/>
        <polyline class="cls-4" points="120.02 166.64 119.62 166.43 119.2 166.72 119.59 166.94"/>
        <polyline class="cls-4" points="125.33 163 124.9 162.79 124.48 163.11 124.88 163.3"/>
        <polygon class="cls-4" points="114.42 157.91 114.02 157.72 113.65 158.02 114.05 158.2 114.42 157.91"/>
        <polygon class="cls-4" points="110.28 161.31 109.91 161.09 109.53 161.39 109.91 161.6 110.28 161.31"/>
      </g>
      <g>
        <path class="cls-4" d="m27.91,159.24h-.11l-2.2,3.82c-.11.19-.11.42,0,.61l1.09,1.88,5.12-4.2-3.9-2.12h0Z"/>
        <polygon class="cls-4" points="31.34 173.65 33.14 172.4 29.45 170.38 31.34 173.65"/>
        <polygon class="cls-4" points="41.45 166.72 32.16 161.6 26.88 165.93 29.08 169.75 33.51 172.16 41.45 166.72"/>
        <path class="cls-4" d="m44.5,173.99l2.44-4.25-5.12-2.81-7.94,5.44,3.53,1.94h6.56c.21,0,.42-.13.53-.32h0Z"/>
        <path class="cls-4" d="m33.54,172.61l-1.99,1.38h0c.11.19.32.32.53.32h4.51l-3.05-1.7h0Z"/>
        <polygon class="cls-4" points="36.3 158.2 32.53 161.31 41.9 166.43 46.73 163.11 36.3 158.2"/>
        <polygon class="cls-4" points="42.27 166.64 47.21 169.32 49.95 164.6 47.16 163.3 42.27 166.64"/>
        <polygon class="cls-4" points="35.9 158.02 30.2 155.33 30.07 155.33 28.02 158.84 32.16 161.09 35.9 158.02"/>
        <path class="cls-4" d="m42.73,152.47h-10.64c-.21,0-.42.11-.53.32l-1.25,2.15,6,2.79,6.43-5.25h0Z"/>
        <path class="cls-4" d="m50.05,164.15h.13l.26-.45c.11-.19.11-.42,0-.61l-.85-1.46-2.04,1.4,2.49,1.11h0Z"/>
        <path class="cls-4" d="m47.16,162.79l2.26-1.54-4.91-8.49c-.11-.19-.32-.32-.53-.32h-.64l-6.66,5.44,10.48,4.91h0Z"/>
        <polygon class="cls-4" points="33.51 172.16 33.14 172.4 33.54 172.61 33.89 172.38 33.51 172.16"/>
        <polyline class="cls-4" points="42.27 166.64 41.9 166.43 41.45 166.72 41.85 166.94"/>
        <polyline class="cls-4" points="47.58 163 47.16 162.79 46.73 163.11 47.16 163.3"/>
        <polygon class="cls-4" points="36.67 157.91 36.27 157.72 35.9 158.02 36.3 158.2 36.67 157.91"/>
        <polygon class="cls-4" points="32.53 161.31 32.16 161.09 31.82 161.39 32.16 161.6 32.53 161.31"/>
      </g>
      <polygon class="cls-3" points="122.49 145.01 159.86 55.27 186.72 55.27 186.72 42.92 151.63 42.92 151.63 42.92 125.57 105.49 43.92 105.49 17.85 42.92 6.47 42.92 4.48 42.92 7.5 50.17 7.5 50.17 31.28 107.34 17.85 117.86 33.65 117.86 120.45 117.86 114.26 132.67 33.65 132.67 33.65 145.01 122.25 145.01 122.49 145.01"/>
      <g>
        <path class="cls-4" d="m69.61,41.23l.69-4.06,3.16-18.5,1.22-7.14,12,2.04,2.6.45c9.77,1.67,16.43,10.35,14.89,19.4-.67,3.85-2.68,7.14-5.57,9.53h16.11c1.19-2.26,2.07-4.7,2.52-7.32,2.36-13.94-7.91-27.34-22.93-29.89l-4.01-.69-18.47-3.13-11.31-1.91-7.3,42.95h12.87l3.53-1.72h0Z"/>
        <polygon class="cls-4" points="74.18 42.92 78.19 42.92 78.58 40.59 74.18 42.92"/>
        <path class="cls-4" d="m77.71,45.76l3.37.58,2.6.45c5.63.96,11.01-.61,14.92-3.85h-20.39l-.51,2.81h0Z"/>
        <polygon class="cls-4" points="66.06 42.92 64.7 43.59 63.88 48.39 74.18 42.92 66.06 42.92"/>
        <path class="cls-4" d="m114.71,42.92c-4.96,9.21-15.72,14.81-27.26,13.54.88.85,1.75,1.81,2.18,2.58,1.06,1.91,1.33,2.87,1.33,2.87l6.61,25.08,13.8,2.34.19-1.11.67-3.85,13.8,12.66-17.23,7.38.88-5.18v-.03l-6.98-1.19-12.92-2.2-.11-.03-9.8-32.04c-.48-1.54-2.55-4.8-3.37-6.11-.19-.26-.4-.58-.64-.9l-.67,3.85-11.31-12.24-7.11,41.81-11.31-1.91,7.73-45.34H17.85l26.07,62.59h81.62l26.09-62.56h-36.92Z"/>
      </g>
    </g>
  </g>
</svg>