<?xml version="1.0" encoding="UTF-8"?>
<svg id="_レイヤー_1" data-name="レイヤー 1" xmlns="http://www.w3.org/2000/svg" viewBox="0 0 512 421.64">
  <defs>
    <style>
      .cls-1 {
        fill: #fff;
      }

      .cls-1, .cls-2 {
        stroke-width: 0px;
      }

      .cls-2 {
        fill: #4c4b4c;
      }
    </style>
  </defs>
  <rect class="cls-1" x="0" width="512" height="421.64"/>
  <g>
    <path class="cls-2" d="m0,0v421.64h512V0H0Zm471.84,381.48H40.16V40.15h431.68v341.33Z"/>
    <path class="cls-2" d="m326.13,162.55c-4.15-6.29-11.18-10.08-18.72-10.07-7.54,0-14.57,3.8-18.71,10.1l-72.23,109.91-39.86-45.18c-4.62-5.24-11.43-8.02-18.4-7.52-6.97.49-13.31,4.21-17.14,10.05l-66.9,101.93h363.66l-111.7-169.23Z"/>
    <path class="cls-2" d="m174.97,185.53c25.1,0,45.45-20.35,45.45-45.46s-20.35-45.45-45.45-45.45-45.46,20.35-45.46,45.45c0,25.11,20.35,45.46,45.46,45.46Z"/>
  </g>
</svg>